<?xml version="1.0" encoding="UTF-8"?>
<svg xmlns="http://www.w3.org/2000/svg" width="920" height="420" viewBox="0 0 920 420" role="img" aria-label="Cold wallet cumulative BTC">
  <rect width="100%" height="100%" fill="#ffffff"/>
  <text x="460.0" y="28" text-anchor="middle" font-size="16" font-weight="600"
        fill="#111827" font-family="Segoe UI, Helvetica, Arial, sans-serif">Cold wallet cumulative BTC</text>
  <!-- grid + y ticks -->
  <line x1="64" y1="364.00" x2="892" y2="364.00" stroke="#e5e7eb" stroke-width="1"/><line x1="59" y1="364.00" x2="64" y2="364.00" stroke="#6b7280" stroke-width="1"/><text x="54" y="368.00" text-anchor="end" font-size="11" fill="#4b5563" font-family="Segoe UI, Helvetica, Arial, sans-serif">0</text><line x1="64" y1="300.80" x2="892" y2="300.80" stroke="#e5e7eb" stroke-width="1"/><line x1="59" y1="300.80" x2="64" y2="300.80" stroke="#6b7280" stroke-width="1"/><text x="54" y="304.80" text-anchor="end" font-size="11" fill="#4b5563" font-family="Segoe UI, Helvetica, Arial, sans-serif">0.02</text><line x1="64" y1="237.60" x2="892" y2="237.60" stroke="#e5e7eb" stroke-width="1"/><line x1="59" y1="237.60" x2="64" y2="237.60" stroke="#6b7280" stroke-width="1"/><text x="54" y="241.60" text-anchor="end" font-size="11" fill="#4b5563" font-family="Segoe UI, Helvetica, Arial, sans-serif">0.04</text><line x1="64" y1="174.40" x2="892" y2="174.40" stroke="#e5e7eb" stroke-width="1"/><line x1="59" y1="174.40" x2="64" y2="174.40" stroke="#6b7280" stroke-width="1"/><text x="54" y="178.40" text-anchor="end" font-size="11" fill="#4b5563" font-family="Segoe UI, Helvetica, Arial, sans-serif">0.06</text><line x1="64" y1="111.20" x2="892" y2="111.20" stroke="#e5e7eb" stroke-width="1"/><line x1="59" y1="111.20" x2="64" y2="111.20" stroke="#6b7280" stroke-width="1"/><text x="54" y="115.20" text-anchor="end" font-size="11" fill="#4b5563" font-family="Segoe UI, Helvetica, Arial, sans-serif">0.08</text><line x1="64" y1="48.00" x2="892" y2="48.00" stroke="#e5e7eb" stroke-width="1"/><line x1="59" y1="48.00" x2="64" y2="48.00" stroke="#6b7280" stroke-width="1"/><text x="54" y="52.00" text-anchor="end" font-size="11" fill="#4b5563" font-family="Segoe UI, Helvetica, Arial, sans-serif">0.1</text>
  <!-- axes -->
  <line x1="64" y1="48" x2="64" y2="364"
        stroke="#374151" stroke-width="1.5"/>
  <line x1="64" y1="364" x2="892" y2="364"
        stroke="#374151" stroke-width="1.5"/>
  <!-- x ticks -->
  <line x1="64.00" y1="364" x2="64.00" y2="369" stroke="#6b7280" stroke-width="1"/><text x="64.00" y="386" text-anchor="middle" font-size="11" fill="#4b5563" font-family="Segoe UI, Helvetica, Arial, sans-serif">26-03-27</text><line x1="229.31" y1="364" x2="229.31" y2="369" stroke="#6b7280" stroke-width="1"/><text x="229.31" y="386" text-anchor="middle" font-size="11" fill="#4b5563" font-family="Segoe UI, Helvetica, Arial, sans-serif">26-11-14</text><line x1="395.34" y1="364" x2="395.34" y2="369" stroke="#6b7280" stroke-width="1"/><text x="395.34" y="386" text-anchor="middle" font-size="11" fill="#4b5563" font-family="Segoe UI, Helvetica, Arial, sans-serif">27-07-05</text><line x1="560.66" y1="364" x2="560.66" y2="369" stroke="#6b7280" stroke-width="1"/><text x="560.66" y="386" text-anchor="middle" font-size="11" fill="#4b5563" font-family="Segoe UI, Helvetica, Arial, sans-serif">28-02-22</text><line x1="726.69" y1="364" x2="726.69" y2="369" stroke="#6b7280" stroke-width="1"/><text x="726.69" y="386" text-anchor="middle" font-size="11" fill="#4b5563" font-family="Segoe UI, Helvetica, Arial, sans-serif">28-10-12</text><line x1="892.00" y1="364" x2="892.00" y2="369" stroke="#6b7280" stroke-width="1"/><text x="892.00" y="386" text-anchor="middle" font-size="11" fill="#4b5563" font-family="Segoe UI, Helvetica, Arial, sans-serif">29-06-01</text>
  <!-- y axis title -->
  <text x="16" y="206.0" text-anchor="middle" font-size="12" fill="#374151"
        font-family="Segoe UI, Helvetica, Arial, sans-serif"
        transform="rotate(-90 16 206.0)">BTC</text>
  <!-- line -->
  <path d="M64.00,364.00 L116.02,347.47" fill="none" stroke="#2563eb" stroke-width="2.5" stroke-linejoin="round" stroke-linecap="round"/>
  <!-- points -->
  <circle cx="64.00" cy="364.00" r="3.5" fill="#2563eb" stroke="#ffffff" stroke-width="1.5"/><circle cx="116.02" cy="347.47" r="3.5" fill="#2563eb" stroke="#ffffff" stroke-width="1.5"/>
</svg>
